<?xml version="1.0" encoding="UTF-8" standalone="no"?>
<!-- Created with Inkscape (http://www.inkscape.org/) -->

<svg
   xmlns:dc="http://purl.org/dc/elements/1.1/"
   xmlns:cc="http://creativecommons.org/ns#"
   xmlns:rdf="http://www.w3.org/1999/02/22-rdf-syntax-ns#"
   xmlns:svg="http://www.w3.org/2000/svg"
   xmlns="http://www.w3.org/2000/svg"
   xmlns:sodipodi="http://sodipodi.sourceforge.net/DTD/sodipodi-0.dtd"
   xmlns:inkscape="http://www.inkscape.org/namespaces/inkscape"
   id="svg2"
   version="1.1"
   inkscape:version="0.48.4 r9939"
   width="412"
   height="151"
   sodipodi:docname="logo.png">
  <metadata
     id="metadata8">
    <rdf:RDF>
      <cc:Work
         rdf:about="">
        <dc:format>image/svg+xml</dc:format>
        <dc:type
           rdf:resource="http://purl.org/dc/dcmitype/StillImage" />
        <dc:title></dc:title>
      </cc:Work>
    </rdf:RDF>
  </metadata>
  <defs
     id="defs6" />
  <sodipodi:namedview
     pagecolor="#ffffff"
     bordercolor="#666666"
     borderopacity="1"
     objecttolerance="10"
     gridtolerance="10"
     guidetolerance="10"
     inkscape:pageopacity="0"
     inkscape:pageshadow="2"
     inkscape:window-width="1865"
     inkscape:window-height="1053"
     id="namedview4"
     showgrid="false"
     inkscape:zoom="2.1213203"
     inkscape:cx="206.05906"
     inkscape:cy="26.316183"
     inkscape:window-x="55"
     inkscape:window-y="27"
     inkscape:window-maximized="1"
     inkscape:current-layer="svg2" />
  <path
     style="fill:#f7982e"
     d="m 101.66658,150.2576 c -0.36667,-0.36666 -0.66667,-3.07631 -0.66667,-6.02144 0,-4.72421 0.2909,-5.48731 2.47038,-6.48035 2.79512,-1.27354 5.52961,0.20551 5.52961,2.9909 0,1.22699 -0.26667,1.31089 -1.2,0.37756 -0.66,-0.66 -2.01,-1.2 -3,-1.2 -1.43567,0 -1.8,0.81598 -1.8,4.03138 0,4.46646 2.49824,6.61659 4.18525,3.60208 1.33686,-2.38884 3.07826,-0.99434 1.78227,1.42723 -1.01343,1.89362 -5.83876,2.73474 -7.30084,1.27264 z m 10.99999,0 c -0.36667,-0.36666 -0.66667,-3.07631 -0.66667,-6.02144 0,-4.76212 0.28078,-5.4827 2.53693,-6.51067 2.0785,-0.94703 2.83144,-0.86141 4.16667,0.47382 1.68294,1.68294 2.2809,9.32297 0.90404,11.55078 -0.77387,1.25214 -5.82688,1.62161 -6.94097,0.50751 z m 5.33332,-5.83333 c 0,-3.83333 -0.2963,-4.5 -2,-4.5 -1.65217,0 -2,0.66667 -2,3.83333 0,4.09956 0.55077,5.16667 2.66667,5.16667 0.91358,0 1.33333,-1.41667 1.33333,-4.5 z m 5,0.11663 c 0,-5.77446 0.21463,-6.44088 2.24999,-6.98634 3.18757,-0.85424 3.42664,-0.81079 5.17857,0.94114 1.76986,1.76986 2.25992,12.42857 0.57143,12.42857 -0.55,0 -1,-2.16 -1,-4.8 0,-5.34037 -1.51994,-7.84331 -3.67621,-6.05376 -0.76729,0.63679 -1.32379,3.1491 -1.32379,5.9762 0,2.68266 -0.45,4.87756 -1,4.87756 -0.56223,0 -0.99999,-2.79446 -0.99999,-6.38337 z m 12.84446,0.63337 c -0.0855,-3.1625 -0.0622,-6.875 0.0519,-8.25 0.30352,-3.65732 5.10358,-6.94917 5.10358,-3.5 0,0.825 -0.675,1.5 -1.5,1.5 -0.825,0 -1.5,0.675 -1.5,1.5 0,0.825 0.675,1.5 1.5,1.5 0.825,0 1.5,0.45 1.5,1 0,0.55 -0.675,1 -1.5,1 -1.15152,0 -1.5,1.27778 -1.5,5.5 0,7.32465 -1.95679,7.0977 -2.15552,-0.25 z m 7.22196,3.87414 c -1.69527,-3.16765 -1.25568,-7.9349 0.93356,-10.12414 3.4521,-3.45211 6.99999,-1.89357 6.99999,3.075 0,2.17222 -0.56386,2.78777 -3,3.275 -1.75956,0.35191 -3,1.23056 -3,2.125 0,2.0721 2.95828,1.92954 4.66916,-0.225 1.27553,-1.60631 1.3667,-1.54473 1.11024,0.75 -0.37645,3.36835 -6.06795,4.19787 -7.71295,1.12414 z m 5.93355,-7.62414 c 0,-0.83333 -0.88889,-1.5 -2,-1.5 -1.11111,0 -2,0.66667 -2,1.5 0,0.83333 0.88889,1.5 2,1.5 1.11111,0 2,-0.66667 2,-1.5 z m 5.99999,3 c 0,-3.66667 0.4359,-6.5 1,-6.5 0.5641,0 1,2.83333 1,6.5 0,3.66667 -0.4359,6.5 -1,6.5 -0.5641,0 -1,-2.83333 -1,-6.5 z m 6.66667,5.83333 c -0.36667,-0.36666 -0.66667,-2.80416 -0.66667,-5.41666 0,-2.6125 -0.39427,-4.9 -0.87615,-5.08334 -0.48188,-0.18333 -0.65581,-1.79583 -0.3865,-3.58333 0.5729,-3.8026 3.26265,-4.4896 3.26265,-0.83333 0,1.32916 0.5625,2.67916 1.25,3 0.99999,0.46666 0.99999,0.7 0,1.16666 -1.48929,0.69501 -1.72084,9.41667 -0.25,9.41667 0.55,0 1,0.45 1,1 0,1.12472 -2.31086,1.35581 -3.33333,0.33333 z m 5.77367,-1.52126 c -0.50891,-1.60345 -0.0966,-2.67199 1.5434,-4 1.2308,-0.99664 2.86297,-1.81207 3.62703,-1.81207 0.76407,0 1.38922,-0.675 1.38922,-1.5 0,-0.83333 -0.88889,-1.5 -2,-1.5 -1.1,0 -2,0.45 -2,1 0,0.55 -0.45,1 -1,1 -1.53075,0 -1.18881,-2.59841 0.52961,-4.02458 1.16961,-0.97068 2.11105,-1.00455 4,-0.14388 2.22905,1.01562 2.47038,1.71382 2.47038,7.14702 l 0,6.02144 -3.9326,0 c -3.16695,0 -4.06782,-0.42598 -4.62704,-2.18793 z m 6.21457,-1.3552 c 0.32569,-0.84872 0.35011,-1.78518 0.0543,-2.08102 -0.87932,-0.87932 -4.81683,1.64095 -4.17817,2.67432 0.91635,1.48269 3.46816,1.11556 4.12391,-0.5933 z m 5.34507,-2.95687 c 0,-3.575 0.4132,-6.5 0.91821,-6.5 0.50502,0 1.63002,-0.27314 2.5,-0.60699 1.00914,-0.38724 1.58179,-0.064 1.58179,0.89301 0,0.825 -0.675,1.75902 -1.5,2.07561 -1.05831,0.40611 -1.5,2.05713 -1.5,5.60699 0,2.76726 -0.45,5.03138 -1,5.03138 -0.5641,0 -1,-2.83333 -1,-6.5 z m 6.99999,0 c 0,-3.66667 0.4359,-6.5 1,-6.5 0.5641,0 1,2.83333 1,6.5 0,3.66667 -0.4359,6.5 -1,6.5 -0.5641,0 -1,-2.83333 -1,-6.5 z m 5.38404,5.05841 c -1.08232,-2.82048 0.15731,-4.99542 3.37283,-5.91761 3.54504,-1.01671 3.96118,-1.79998 1.8758,-3.53069 -1.04,-0.86313 -1.66777,-0.77275 -2.62244,0.37756 -1.40303,1.69055 -3.01023,2.00222 -3.01023,0.58376 0,-1.397 2.95595,-4.07143 4.5,-4.07143 2.88381,0 4.49999,3.07844 4.49999,8.57143 l 0,5.42857 -4.03137,0 c -2.58837,0 -4.2294,-0.51601 -4.58458,-1.44159 z m 6.27087,-2.10154 c 0.32569,-0.84872 0.35011,-1.78518 0.0543,-2.08102 -0.75144,-0.75144 -4.70917,1.48354 -4.70917,2.65933 0,1.58809 4.015,1.08928 4.65491,-0.57831 z m 10.34507,-5.95687 c 0,-5.66667 0.40351,-9.5 1,-9.5 0.59649,0 1,3.83333 1,9.5 0,5.66667 -0.40351,9.5 -1,9.5 -0.59649,0 -1,-3.83333 -1,-9.5 z m 9.99999,3.11658 c 0,-6.01488 0.14434,-6.41102 2.5,-6.86133 2.75072,-0.52583 3.57356,1.61881 1,2.60638 -1.05831,0.40611 -1.5,2.05713 -1.5,5.60699 0,2.76726 -0.45,5.03138 -1,5.03138 -0.56223,0 -1,-2.79447 -1,-6.38342 z m 8.2,5.18342 c -1.75122,-1.75122 -1.49961,-9.35753 0.37143,-11.22857 3.02016,-3.02018 7.42856,-0.96465 7.42856,3.46375 0,2.40342 -0.42604,2.96772 -2.25,2.98013 -2.97473,0.0203 -5.17684,1.48501 -4.31909,2.87289 1.00728,1.62982 3.33331,1.35554 4.38102,-0.51662 0.6497,-1.16095 1.11927,-1.29191 1.63578,-0.45619 1.83864,2.97499 -4.59623,5.53609 -7.2477,2.88461 z m 5.79999,-8.30959 c 0,-1.77742 -2.52401,-2.5664 -3.87814,-1.21227 -1.96861,1.96862 -1.26984,3.47281 1.37814,2.96661 1.375,-0.26285 2.5,-1.0523 2.5,-1.75434 z m 5.07831,8.10395 c -0.68777,-0.82871 -0.92448,-2.03425 -0.52602,-2.67897 0.51651,-0.83572 0.98608,-0.70476 1.63577,0.45619 1.02007,1.82276 3.36591,2.15911 4.3177,0.61909 0.34309,-0.55513 -0.74831,-1.79263 -2.42533,-2.75 -3.35824,-1.91714 -4.30801,-3.48402 -3.45666,-5.7026 1.15116,-2.9999 7.37622,-2.94173 7.37622,0.0689 0,1.66747 -1.19008,1.80293 -2.68713,0.30588 -0.78285,-0.78285 -1.28979,-0.75923 -1.81116,0.0844 -0.42998,0.69571 0.64107,2.32457 2.63713,4.01058 2.80644,2.37053 3.17948,3.14053 2.2603,4.66563 -1.40859,2.33713 -5.69769,2.87667 -7.32082,0.92091 z m 11.14505,0.15564 c -0.97032,-1.18735 -1.63216,-8.03861 -1.35242,-14 0.16117,-3.43451 2.12904,-3.66558 2.12904,-0.25 0,1.55556 0.56667,2.5 1.5,2.5 0.825,0 1.5,0.45 1.5,1 0,0.55 -0.675,1 -1.5,1 -1.04167,0 -1.5,1.04762 -1.5,3.42857 0,1.88572 0.675,4.10357 1.5,4.92857 0.825,0.825 1.5,1.75715 1.5,2.07143 0,1.07025 -2.75148,0.57587 -3.77662,-0.67857 z m 6.32133,-0.60912 c -0.92301,-2.90817 0.3608,-4.96122 3.53883,-5.65923 3.27921,-0.72024 4.00608,-3.48165 0.91645,-3.48165 -1.09999,0 -1.99999,0.45 -1.99999,1 0,0.55 -0.45,1 -1,1 -1.53075,0 -1.18881,-2.59841 0.52961,-4.02458 1.16961,-0.97068 2.11105,-1.00455 3.99999,-0.14388 2.22906,1.01562 2.47039,1.71382 2.47039,7.14702 l 0,6.02144 -3.93261,0 c -2.95501,0 -4.07929,-0.46215 -4.52267,-1.85912 z m 6.1102,-1.68401 c 0.32569,-0.84872 0.35011,-1.78518 0.0543,-2.08102 -0.87932,-0.87932 -4.81682,1.64095 -4.17816,2.67432 0.91635,1.48269 3.46815,1.11556 4.1239,-0.5933 z m 5.95207,1.96134 c -0.99285,-2.58733 -0.6889,-11.41821 0.39301,-11.41821 0.55,0 1,2.26412 1,5.03138 0,3.69083 0.42655,5.19507 1.60091,5.64572 2.19669,0.84295 3.36557,-1.37723 3.38377,-6.4271 0.008,-2.3375 0.46531,-4.25 1.01531,-4.25 0.5641,0 1,2.83333 1,6.5 l 0,6.5 -3.89301,0 c -2.62742,0 -4.09033,-0.51423 -4.49999,-1.58179 z m 11.393,-4.80163 c 0,-6.01488 0.14434,-6.41102 2.49999,-6.86133 2.75072,-0.52583 3.57356,1.61881 1,2.60638 -1.05831,0.40611 -1.5,2.05713 -1.5,5.60699 0,2.76726 -0.44999,5.03138 -0.99999,5.03138 -0.56223,0 -1,-2.79447 -1,-6.38342 z m 7.01056,4.89615 c -1.74455,-2.10204 -0.51359,-4.49659 2.99171,-5.81969 3.38542,-1.27786 4.03792,-3.69304 0.99772,-3.69304 -1.1,0 -2,0.45 -2,1 0,0.55 -0.45,1 -1,1 -1.53075,0 -1.18881,-2.59841 0.52961,-4.02458 1.16961,-0.97068 2.11105,-1.00455 3.99999,-0.14388 2.22906,1.01562 2.47039,1.71382 2.47039,7.14702 l 0,6.02144 -3.37755,0 c -1.85765,0 -3.93299,-0.66927 -4.61187,-1.48727 z m 5.64434,-2.05586 c 0.32569,-0.84872 0.37597,-1.75931 0.11175,-2.02354 -0.89089,-0.89089 -3.76666,0.76865 -3.76666,2.17366 0,1.89234 2.91714,1.77253 3.65491,-0.15012 z m 5.34508,-2.84846 c 0,-5.99759 0.15538,-6.43059 2.52052,-7.0242 4.75249,-1.1928 6.47947,0.79311 6.47947,7.45097 0,3.30988 -0.4451,5.96482 -1,5.96482 -0.55,0 -1,-2.5063 -1,-5.56955 0,-5.20385 -0.14774,-5.54857 -2.25,-5.25 -1.96015,0.27839 -2.28893,0.99585 -2.55225,5.56955 -0.42887,7.44906 -2.19774,6.53024 -2.19774,-1.14159 z m 12.66212,5.64159 c -0.49074,-0.8073 -0.98922,-10.00068 -0.78621,-14.5 0.15496,-3.43445 2.12408,-3.66622 2.12408,-0.25 0,1.55556 0.56667,2.5 1.49999,2.5 0.825,0 1.5,0.45 1.5,1 0,0.55 -0.675,1 -1.5,1 -1.08527,0 -1.49999,1.1146 -1.49999,4.03138 0,2.66097 0.50991,4.22706 1.49999,4.60699 0.825,0.31659 1.5,0.97746 1.5,1.46862 0,1.07963 -3.69448,1.20143 -4.33786,0.14301 z m 7.53786,-0.45 c -0.66,-0.66 -1.2,-3.36965 -1.2,-6.02144 0,-4.10393 0.35322,-4.98237 2.37351,-5.90288 3.48804,-1.58926 6.84356,0.43549 6.43641,3.88379 -0.23786,2.01454 -1.06569,2.81944 -3.55992,3.46133 -3.51512,0.90461 -4.23579,2.46369 -1.60539,3.47306 0.9852,0.37806 2.14955,-0.0595 2.904,-1.09122 0.84107,-1.15025 1.48594,-1.35574 1.94147,-0.61868 1.80515,2.92079 -4.68016,5.42596 -7.29008,2.81604 z m 5.79999,-7.79413 c 0,-1.74043 -2.63663,-2.96923 -3.82378,-1.78208 -2.01746,2.01746 -1.35346,3.53275 1.32379,3.02096 1.375,-0.26285 2.49999,-0.82034 2.49999,-1.23888 z m -167.77066,-8.19337 c 0.61806,-1.85422 2.77082,-2.16176 2.77082,-0.39583 0,0.87083 -0.7125,1.58333 -1.58333,1.58333 -0.87083,0 -1.4052,-0.53438 -1.18749,-1.1875 z m 31.77079,-0.3125 c 0,-0.825 0.45,-1.5 1,-1.5 0.55,0 1,0.675 1,1.5 0,0.825 -0.45,1.5 -1,1.5 -0.55,0 -1,-0.675 -1,-1.5 z m 17.77513,-15.0588 c -3.969,-2.1539 -4.77514,-4.38918 -4.77514,-13.2406 0,-6.48571 0.37421,-8.406617 2.05362,-10.541627 4.24521,-5.39692 14.65202,-5.39123 18.90087,0.0103 1.67012,2.1232 2.04549,4.055817 2.04549,10.531287 0,4.36199 -0.46334,8.79664 -1.02964,9.85479 -2.4337,4.5474 -11.69456,6.3709 -17.1952,3.38581 z m 9.65342,-6.01263 c 1.81622,-1.81622 2.15974,-10.46078 0.53625,-13.49431 -1.15713,-2.162117 -4.9277,-2.571377 -6.76482,-0.734257 -1.29972,1.299727 -1.63399,11.604307 -0.43468,13.400057 1.52307,2.50991 4.56283,2.89832 6.66325,0.82851 z m 150.84812,5.59871 c -3.18159,-1.9399 -5.08254,-5.9146 -3.81196,-7.97044 1.04913,-1.69753 5.30625,-1.21729 6.72842,0.75901 1.80327,2.50591 4.58468,3.37334 6.87913,2.14538 3.16604,-1.69441 2.26187,-2.68692 -4.49675,-4.93604 -7.1699,-2.386 -8.28853,-3.33947 -9.18672,-7.83043 -0.51727,-2.586377 -0.10732,-3.630227 2.41714,-6.154697 2.64191,-2.64192 3.75278,-3.04006 8.48212,-3.04006 6.38422,0 10.71177,2.65532 10.71177,6.57258 0,2.092947 -0.46752,2.427417 -3.39301,2.427417 -2.15797,0 -3.61188,-0.57037 -3.99432,-1.566967 -0.39212,-1.02187 -1.55991,-1.45671 -3.35697,-1.25 -4.52421,0.52039 -3.21137,2.971227 2.66081,4.967247 7.21337,2.45189 9.08349,4.2875 9.08349,8.91581 0,7.79518 -10.78121,11.80359 -18.72315,6.96119 z M 5.9999943e-6,104.92427 l 0,-13.999997 3.4831507000057,0 c 3.1686219,0 3.7087054,0.44511 5.9809793,4.92923 1.373805,2.71108 2.857849,5.151737 3.297876,5.423687 0.440026,0.27195 2.120298,-1.9462 3.733936,-4.929227 2.633754,-4.86885 3.269951,-5.42369 6.218961,-5.42369 l 3.285072,0 0,13.999997 0,14 -3.499996,0 -3.499997,0 -0.0037,-6.75 -0.0037,-6.75 -1.981562,3.25 c -1.126034,1.84683 -2.808998,3.25 -3.898056,3.25 -1.06859,0 -2.837339,-1.43788 -3.9978486,-3.25 l -2.0814281,-3.25 -0.01685,6.75 -0.01685,6.75 -3.4999967,0 -3.4999966,0 z M 29.999977,117.65881 c 0,-0.696 2.143294,-6.8835 4.762875,-13.75 4.577148,-11.997707 4.882677,-12.496277 7.835167,-12.785597 3.345221,-0.32782 4.554933,0.71264 6.163411,5.30106 0.578411,1.65 2.660624,7.387497 4.627132,12.749997 l 3.575467,9.75 -3.865397,0 c -3.024407,0 -3.979203,-0.43514 -4.388422,-2 -0.435499,-1.66535 -1.364014,-2 -5.549238,-2 -4.147969,0 -5.137144,0.34947 -5.661002,2 -0.472363,1.48829 -1.513032,2 -4.067384,2 -2.101785,0 -3.432609,-0.49062 -3.432609,-1.26546 z m 14.929701,-10.98454 c -0.03866,-0.6875 -0.417988,-2.13996 -0.842956,-3.2277 -0.755158,-1.93287 -0.798897,-1.92869 -1.929713,0.18426 -1.665572,3.11215 -1.433643,4.29344 0.842956,4.29344 1.099999,0 1.96837,-0.5625 1.929713,-1.25 z m 15.070268,-1.8495 0,-14.099497 9.087251,0.3495 c 8.515042,0.32749 9.239161,0.52617 11.499989,3.15526 3.263097,3.79464 3.186007,8.621807 -0.20198,12.648207 l -2.614727,3.10743 2.614727,3.77305 c 1.438099,2.07518 2.614718,4.08636 2.614718,4.4693 0,0.38294 -1.740199,0.69625 -3.867107,0.69625 -3.400306,0 -4.184926,-0.48025 -6.499993,-3.97856 -3.233657,-4.88639 -3.654107,-11.02144 -0.75533,-11.02144 1.032649,0 2.437748,-0.675 3.122437,-1.5 1.853008,-2.23274 -0.475939,-4.499997 -4.622435,-4.499997 l -3.377557,0 0,10.499997 0,10.5 -3.499997,0 -3.499996,0 z m 32.999968,3.5995 0,-10.499997 -3.499997,0 c -3.333326,0 -3.499996,-0.16667 -3.499996,-3.5 l 0,-3.5 10.999989,0 10.99999,0 0,3.5 c 0,3.33333 -0.16667,3.5 -3.5,3.5 l -3.49999,0 0,10.499997 0,10.5 -4,0 -3.999996,0 z m 17.999986,7.5 c 0,-2.33333 0.44444,-3 1.99999,-3 1.81941,0 1.03473,-0.46058 1.20833,-7.17504 0.0625,-2.41736 -0.0208,-8.531367 -0.0208,-8.531367 0,0 -3.16622,0.0344 -3.16666,-0.0979 l -0.0209,-6.28327 14.47915,0.14798 c 0.16906,0.002 -0.0264,5.68832 0.0528,6.22235 0.0159,0.1069 -2.36124,-0.0443 -3.27082,0.075 -0.12496,0.0164 -0.15693,1.734787 -0.2611,8.142327 -0.10445,6.42488 0.23147,7.32726 1.99999,7.78974 1.35148,0.35342 2,1.36401 2,3.11663 0,2.56096 -0.0945,2.59363 -7.49999,2.59363 l -7.49999,0 z m 19.99998,-11 0,-13.999997 3.02016,0 c 2.64759,0 3.60367,0.8944 7.75,7.25 l 4.72982,7.249997 0.29502,-7.309997 0.29502,-7.31 3.20498,0.31 3.20498,0.31 0.27822,13.749997 0.27822,13.75 -3.56443,0 c -3.31564,0 -3.85855,-0.46988 -7.77821,-6.73206 l -4.21379,-6.73206 -0.29569,6.73206 -0.29569,6.73206 -3.45431,0 -3.4543,0 z m 39.99996,0 0,-13.999997 3.5,0 3.49999,0 0,5.5 0,5.499997 4.5,0 4.49999,0 0,-5.499997 0,-5.5 3.5,0 3.5,0 0,13.999997 0,14 -3.5,0 -3.5,0 0,-5 0,-5 -4.49999,0 -4.5,0 0,5 0,5 -3.49999,0 -3.5,0 z m 55.99995,0 0,-13.999997 3.49999,0 3.5,0 0,10.999997 0,11 6.49999,0 6.5,0 0,3 0,3 -9.99999,0 -9.99999,0 z m 22.00959,13.25 c 0.005,-0.4125 2.20872,-6.6 4.89651,-13.75 l 4.8869,-12.999997 3.47383,-0.30264 c 3.25399,-0.28348 3.58334,-0.0303 5.20379,4 2.07771,5.167627 8.52933,22.884047 8.52933,23.421927 0,0.20939 -1.61713,0.38071 -3.59362,0.38071 -2.75262,0 -3.71601,-0.46805 -4.11662,-2 -0.4395,-1.68064 -1.36402,-2 -5.78975,-2 -4.42572,0 -5.35024,0.31936 -5.78974,2 -0.40061,1.53195 -1.36401,2 -4.11663,2 -1.97649,0 -3.58929,-0.3375 -3.584,-0.75 z m 14.71948,-13.78099 -1.08369,-3.53098 -1.32271,3.14579 c -1.69905,4.04084 -1.73354,3.91618 1.08369,3.91618 2.29213,0 2.35494,-0.16767 1.32271,-3.53099 z m 15.27088,0.53099 0,-13.999997 3.38526,0 c 3.1329,0 3.71065,0.53935 7.75,7.23503 l 4.36472,7.235017 0.29381,-7.235017 0.29381,-7.23503 3.45619,0 3.45618,0 0,13.999997 0,14 -3.3903,0 c -3.12092,0 -3.75421,-0.5761 -7.96966,-7.25 l -4.57933,-7.25 -0.0303,7.25 -0.0304,7.25 -3.5,0 -3.49999,0 z m 28.99997,0 0,-13.999997 6.53211,0 c 7.32994,0 12.77405,1.83506 14.38738,4.8496 0.59427,1.11041 1.08049,5.608497 1.08049,9.995757 0,7.67974 -1.09605,9.302 -2.66006,11.02408 -1.32121,1.45475 -4.35158,2.13056 -11.41666,2.13056 l -7.92326,0 z m 13.92996,6.58437 c 1.36498,-2.32523 1.67117,-9.4533 -0.0133,-11.83437 -1.58334,-2.040237 -4.41667,-1.663817 -6.91667,-1.870727 l 0,7.560357 0,7.56037 2.87756,0 c 1.58265,0 3.1127,-0.092 4.05241,-1.41563 z m 13.29179,-6.33437 0.27822,-13.749997 10.24999,-0.28498 10.24999,-0.28499 0,3.53499 0,3.53498 -7.07331,0 c -6.19683,0 -7.03201,0.21685 -6.73995,1.749997 0.26742,1.40383 1.5677,1.80889 6.57331,2.04772 6.17697,0.29471 6.23995,0.32751 6.23995,3.25 l 0,2.95228 -6.49999,0 c -6.26666,0 -6.49999,0.0897 -6.49999,2.5 0,2.44444 0.16667,2.5 7.49999,2.5 l 7.49999,0 0,3 0,3 -11.02821,0 -11.02821,0 z m 49.77817,13.36929 c 0,-0.53788 6.45162,-18.2543 8.52934,-23.421927 1.62044,-4.03032 1.94979,-4.28348 5.20378,-4 l 3.47384,0.30264 4.88689,12.999997 c 2.68779,7.15 4.89122,13.3375 4.89651,13.75 0.005,0.4125 -1.60751,0.75 -3.584,0.75 -2.75262,0 -3.71601,-0.46805 -4.11662,-2 -0.4395,-1.68064 -1.36402,-2 -5.78975,-2 -4.42572,0 -5.35024,0.31936 -5.78974,2 -0.40061,1.53195 -1.36401,2 -4.11663,2 -1.97649,0 -3.59362,-0.17132 -3.59362,-0.38071 z m 15.44641,-12.86929 c -1.41677,-4.63098 -2.06576,-4.89693 -3.17,-1.29901 -1.04424,3.40245 -0.98706,3.54901 1.38457,3.54901 2.1027,0 2.37053,-0.33752 1.78543,-2.25 z M 111.35795,75.656203 c -1.17807,-1.22756 -2.86557,-2.81217 -3.75,-3.52136 -0.88443,-0.70918 -1.60805,-2.16386 -1.60805,-3.23261 0,-1.06875 3.375,-7.897688 7.49999,-15.17541 4.125,-7.277722 7.5,-13.725919 7.5,-14.329327 0,-0.603408 -1.35,-2.095204 -3,-3.315102 -1.96151,-1.45021 -3,-3.095794 -3,-4.7538 0,-1.394692 -0.46583,-3.40622 -1.03518,-4.470062 -0.81451,-1.521914 -0.70792,-1.934259 0.5,-1.934259 0.94277,0 1.53518,-0.90278 1.53518,-2.339485 0,-1.52503 0.87034,-2.736036 2.5,-3.478561 2.37374,-1.081549 3.61618,0.01018 1.5,1.318046 -1.88309,1.163815 -0.99375,5.00183 2.50257,10.80008 1.92358,3.190044 3.49742,6.476251 3.49742,7.302683 0,0.826432 -2.64089,6.091396 -5.86863,11.69992 -3.22776,5.608524 -6.87727,12.222317 -8.11003,14.697317 -4.13455,8.30087 -0.23047,2.62883 8.41158,-12.220768 7.41855,-12.74726 8.56708,-15.344384 8.56708,-19.372444 0,-4.003739 -0.20716,-4.479747 -1.48727,-3.417357 -0.81799,0.678876 -2.1782,0.969183 -3.02268,0.645126 -1.32145,-0.507094 -1.26829,-0.856305 0.3815,-2.506109 1.0543,-1.054303 2.22876,-3.762724 2.60991,-6.018714 0.43172,-2.555327 1.59544,-4.81166 3.08659,-5.984603 l 2.3936,-1.882802 -2.98083,-0.596164 c -1.63945,-0.327891 -2.98082,-1.087739 -2.98082,-1.688553 0,-0.603701 0.8191,-0.832414 1.83099,-0.511255 1.13533,0.360342 3.33168,-0.505967 5.78089,-2.28017 7.20655,-5.2203997 8.11658,-5.4931907 11.16449,-3.3466877 1.49798,1.05496 3.73611,2.232472 4.97361,2.616693 1.60316,0.4977527 2.25,1.4725287 2.25,3.3907287 0,1.833734 1.10911,3.64568 3.47838,5.682613 3.88567,3.340619 4.19398,4.53467 2.02542,7.844313 -1.66179,2.536201 -1.96023,5.725006 -0.93159,9.953741 0.50198,2.063611 -0.0133,4.08688 -1.94463,7.635328 -1.44517,2.655257 -2.62758,5.658352 -2.62758,6.673543 0,1.015191 1.84252,6.416081 4.09451,12.001978 4.03091,9.998393 4.15259,10.165463 7.83268,10.753933 2.69782,0.4314 4.05705,1.29766 4.88403,3.11269 l 1.14588,2.51494 -7.22855,-0.0195 -7.22856,-0.0195 -7.55784,-13.157982 c -4.15682,-7.236888 -8.25814,-13.599718 -9.11407,-14.139621 -0.9064,-0.571744 -2.34372,-0.626915 -3.44215,-0.132126 -1.6603,0.747884 -1.56311,0.893908 0.81237,1.22058 2.12893,0.292767 3.46157,1.735944 6.31564,6.839489 4.52975,8.09997 4.33222,10.44826 -1.01393,12.05376 l -4,1.20125 5.52749,0.0769 c 5.7508,0.08 9.9725,2.0415 9.9725,4.63355 0,1.19558 -2.65709,1.4433 -15.48094,1.4433 l -15.48093,0 -0.63072,-2.51299 c -0.36471,-1.45315 -0.10222,-3.14977 0.6224,-4.02289 1.05125,-1.2667 0.9715,-1.40184 -0.49516,-0.83903 -1.35236,0.51895 -1.62509,1.42997 -1.20432,4.02289 l 0.54396,3.35202 -4.18713,-0.0181 c -3.00965,-0.013 -4.78948,-0.64572 -6.32907,-2.25 z m 129.64182,1.50301 c 0,-1.91369 2.7058,-4.16005 6,-4.98121 3.28184,-0.81808 3.76017,-1.49205 7.67436,-10.813094 2.29591,-5.46735 4.20841,-10.734953 4.25,-11.705785 0.0416,-0.970831 -1.33352,-4.262033 -3.05582,-7.313781 -2.83042,-5.015215 -3.00647,-5.806872 -1.83132,-8.234851 1.51743,-3.135151 1.31734,-5.841913 -0.63823,-8.633883 -2.12884,-3.039337 -1.70138,-4.737821 2.12906,-8.459803 2.29066,-2.225801 3.31642,-4.007174 2.95789,-5.136789 -0.41349,-1.302795 0.84043,-2.513397 5.08397,-4.9082977 l 5.63283,-3.178977 6.07288,4.077842 c 4.32766,2.9059537 6.66715,3.8892287 8.14077,3.4215197 1.82626,-0.579634 1.90844,-0.464199 0.70328,0.987923 -0.75053,0.904335 -2.18904,1.644246 -3.1967,1.644246 -1.63153,0 -1.57598,0.256114 0.50744,2.339538 1.28674,1.286745 2.65735,4.220663 3.04579,6.519817 0.38844,2.299154 1.39376,4.867791 2.23405,5.708081 2.00509,2.005084 0.74287,3.196663 -1.7422,1.644709 -1.06752,-0.66668 -2.05956,-1.212565 -2.20452,-1.213078 -0.14496,-5.13e-4 -0.19595,2.023203 -0.1133,4.497147 0.12298,3.681271 1.74079,7.267858 8.90908,19.750933 9.8236,17.107103 9.2794,16.247413 9.89516,15.631653 0.24999,-0.24999 -3.12036,-6.737487 -7.48967,-14.416662 -4.36931,-7.679176 -7.94885,-14.786419 -7.95452,-15.793874 -0.006,-1.007454 1.61886,-4.607454 3.61007,-8 3.12683,-5.327365 3.47949,-6.543162 2.58686,-8.918264 -0.77298,-2.05673 -0.7277,-2.75 0.1796,-2.75 1.91542,0 3.61314,2.193667 3.61314,4.668615 0,1.728508 0.41664,2.122008 1.75,1.652822 1.42856,-0.502686 1.5204,-0.368345 0.5,0.731384 -0.6875,0.740949 -1.25,2.651635 -1.25,4.245969 0,1.931452 -1.00111,3.83397 -3,5.70121 -1.65,1.541331 -3,3.289051 -3,3.883824 0,0.594772 3.375,7.035904 7.5,14.313626 4.12499,7.277722 7.49999,13.98134 7.49999,14.89692 0,0.91559 -1.98823,3.29391 -4.4183,5.28517 -3.29111,2.69682 -5.3523,3.62046 -8.07944,3.62046 -3.50207,0 -3.63404,-0.12343 -3.03725,-2.84066 0.45465,-2.07001 0.13709,-3.223 -1.17053,-4.25 -1.64262,-1.29009 -1.67625,-1.25875 -0.39744,0.37027 1.09064,1.38933 1.15017,2.32141 0.27144,4.25 l -1.12558,2.47039 -15.55661,0 c -15.18662,0 -15.53144,-0.047 -14.49851,-1.97708 1.53537,-2.86887 4.24147,-4.01282 9.69652,-4.099 l 4.81573,-0.0761 -3.43307,-1.24061 c -5.7,-2.0598 -5.83982,-3.43489 -1.16344,-11.44196 3.53935,-6.060236 4.60204,-7.169962 6.89062,-7.195681 2.35149,-0.02643 2.47257,-0.16621 0.92447,-1.067273 -0.97978,-0.570276 -2.44138,-0.894092 -3.24799,-0.719591 -0.80662,0.1745 -4.97139,6.392273 -9.25505,13.817273 l -7.78848,13.500022 -7.21351,0.29381 c -3.96744,0.1616 -7.21352,-0.0899 -7.21352,-0.55887 z M 187.99982,51.48329 c 0,-4.092541 -0.45,-7.719098 -1,-8.059017 -1.84216,-1.138522 -1.02528,-2.5 1.5,-2.5 2.48148,0 2.5,0.06667 2.5,9 0,7.333333 -0.27778,9 -1.5,9 -1.19894,0 -1.5,-1.493443 -1.5,-7.440983 z m 6.5,6.440983 c -1.05342,-1.704467 0.33541,-2.75412 2.97612,-2.249313 1.85663,0.354917 2.52387,0.05509 2.52387,-1.13411 0,-1.020196 -0.84851,-1.616577 -2.3,-1.616577 -3.25753,0 -4.69999,-1.841437 -4.69999,-6 0,-4.315945 1.44964,-6 5.16481,-6 3.53891,0 4.83518,2.412822 4.83518,9 0,6.677303 -1.28424,9 -4.97617,9 -1.59819,0 -3.1839,-0.45 -3.52382,-1 z m 5.49999,-11 c 0,-2.276816 -0.45633,-3 -1.89301,-3 -1.04116,0 -2.15202,0.675 -2.46861,1.5 -0.87293,2.274816 0.34777,4.5 2.46861,4.5 1.43668,0 1.89301,-0.723184 1.89301,-3 z m 6.2,10.8 c -1.19442,-1.194418 -1.66509,-3.8 -0.68643,-3.8 0.28246,0 1.39622,0.551232 2.47503,1.224959 1.55321,0.969999 2.22216,0.96427 3.21395,-0.02752 1.78738,-1.787376 -0.21685,-4.615326 -3.55342,-5.013858 -2.41959,-0.289008 -2.64913,-0.70059 -2.64913,-4.750003 l 0,-4.433578 3.99999,0 c 2.88889,0 4,0.416667 4,1.5 0,1.007953 -1.00815,1.5 -3.07332,1.5 -4.15964,0 -3.68127,3.265326 0.58553,3.996787 2.63141,0.451105 3.02531,0.967281 3.30232,4.327494 0.17298,2.098412 -0.21962,4.45889 -0.87245,5.245507 -1.44565,1.741899 -5.10543,1.866864 -6.74207,0.230212 z m 10.83517,-0.734259 c -1.38252,-2.583278 -1.30938,-3.065741 0.46481,-3.065741 0.825,0 1.5,0.45 1.5,1 0,0.55 0.92989,1 2.06642,1 1.66432,0 2.00485,-0.535118 1.75,-2.75 -0.26366,-2.291455 -0.85834,-2.802251 -3.56642,-3.063358 -3.13121,-0.301907 -3.24999,-0.475504 -3.24999,-4.75 l 0,-4.436642 4.49999,0 c 2.475,0 4.5,0.45 4.5,1 0,0.55 -1.35,1 -3,1 -2.53333,0 -3,0.388889 -3,2.5 0,1.942029 0.51333,2.5 2.3,2.5 3.14822,0 4.7,1.815917 4.7,5.5 0,1.705 -0.54,3.64 -1.2,4.3 -1.90147,1.901469 -6.59158,1.457962 -7.76481,-0.734259 z m -39.55209,-5.119109 c -0.95452,-3.007444 1.86356,-5.848542 4.2857,-4.320695 0.95218,0.60062 1.73124,2.167992 1.73124,3.483049 0,3.350487 -4.99853,4.046356 -6.01694,0.837646 z m 51.18356,1.386701 c -1.2422,-1.242205 -0.67536,-5.11602 0.83333,-5.694959 3.37624,-1.295584 6.5862,2.347913 4.39481,4.988374 -1.19922,1.444973 -4.09799,1.836742 -5.22814,0.706585 z M 182.53724,30.786368 c -2.86348,-3.403052 -3.00595,-6.550886 -0.37123,-8.201979 2.41834,-1.515493 5.14711,0.885956 3.82142,3.363027 -0.53368,0.997223 -0.69298,3.199971 -0.35397,4.894995 0.77627,3.881408 0.20828,3.871127 -3.09622,-0.05604 z m 10.27186,0.387905 c -5.12764,-5.497673 -6.39656,-11.330148 -2.87502,-13.214816 2.55813,-1.369071 4.3132,-1.30594 6.41473,0.230742 1.61732,1.182613 1.62354,1.481851 0.0945,4.546897 -1.51405,3.034995 -1.4759,5.333151 0.15923,9.594276 0.94606,2.465378 -0.95587,1.885239 -3.79343,-1.157099 z m 12.88594,-2.585965 c 0.66489,-6.442202 -0.74546,-9.664035 -4.23041,-9.664035 -2.80688,0 -3.0563,-0.808847 -1.08199,-3.50887 1.89112,-2.58627 8.34321,-2.58627 10.23433,0 2.20059,3.009485 1.68446,9.31847 -1.15932,14.171012 -1.39819,2.385822 -2.94066,4.337858 -3.42774,4.337858 -0.48708,0 -0.63777,-2.401184 -0.33487,-5.335965 z m 9.86921,1.835965 c 1.2906,-3.088853 1.28378,-3.927479 -0.0581,-7.139027 -1.14302,-2.735635 -1.24008,-3.97689 -0.39098,-5 2.41513,-2.910051 8.88462,-0.548914 8.88462,3.242574 0,2.88823 -2.81067,8.102363 -5.51368,10.228553 -3.87189,3.045642 -4.61034,2.708982 -2.92186,-1.3321 z m 10.43554,1 c 0.6136,-1.613899 0.59109,-3.445303 -0.0635,-5.167031 -0.7563,-1.989244 -0.68648,-2.874827 0.27476,-3.484688 1.91123,-1.212599 3.3984,-1.023535 4.74891,0.603731 1.48019,1.783519 0.54056,5.249758 -2.24942,8.297988 -2.71359,2.964778 -3.89169,2.856127 -2.71074,-0.25 z M 203.07747,8.5069423 c -1.71523,-1.825787 -2.15462,-3.139904 -1.68091,-5.027306 0.53331,-2.124883 1.22455,-2.55536306 4.10325,-2.55536306 2.89249,0 3.56901,0.42681506 4.11319,2.59501706 0.49402,1.968329 0.0639,3.182407 -1.78098,5.027306 l -2.43228,2.4322887 z"
     id="path3029"
     inkscape:connector-curvature="0"
     sodipodi:nodetypes="csssssssscsssssssssssssssssssscssssssssccsssssssssssssssssscscsscssscsssssssssscssccsccsssssssssssssssssssscssccsccsssssssssssssscsssssssscssssssscssccsssssssssssssssssscssccsccsssscsscsssssssssssssssscssscssssssssssssssssscsssssssscsssssssssssssssssssssscssccsssssssssscssssccssssscccccccsscccccccssssscsssssssssssccssscsssssssccccccccsscccssccccccssscscssssssscsccsscccccccsscccccccccccccccccccccccccccccccccccccccccccccscsssssssscscsssccsscccccccssccccccccssssscccccccscccccccsssscsssccccccssscscssssssssssssssssssssssssssssssssscssssssssssssssscccsssssscssscsssscssssscsssssscssssssssssssscssssssssssssssssscssscsssssscsssssssssssssssssssssssssssscsssssssssssssscssssssssssssssssssssscssssccssssssssssssscssssccssssscs" />
</svg>
