<?xml version="1.0" encoding="UTF-8" standalone="no"?>
<svg
   xmlns:dc="http://purl.org/dc/elements/1.1/"
   xmlns:cc="http://creativecommons.org/ns#"
   xmlns:rdf="http://www.w3.org/1999/02/22-rdf-syntax-ns#"
   xmlns:svg="http://www.w3.org/2000/svg"
   xmlns="http://www.w3.org/2000/svg"
   xml:space="preserve"
   width="50"
   viewBox="0 0 49.999999 49.999999"
   version="1.1"
   id="Layer_1"
   height="50"
   enable-background="new 0 0 56.693 56.693"><metadata
     id="metadata9"><rdf:RDF><cc:Work
         rdf:about=""><dc:format>image/svg+xml</dc:format><dc:type
           rdf:resource="http://purl.org/dc/dcmitype/StillImage" /><dc:title></dc:title></cc:Work></rdf:RDF></metadata><defs
     id="defs7" /><path
     style="stroke-width:1.01524901"
     id="path2"
     d="M 25,0 C 11.192893,0 0,11.195378 0,25.001015 0,38.808683 11.192893,50 25,50 38.807107,50 50,38.808683 50,25.001015 50,11.195378 38.806091,0 25,0 Z m 6.616244,24.896442 H 27.28731 c 0,6.918048 0,15.439206 0,15.439206 h -6.416244 c 0,0 0,-8.433845 0,-15.439206 H 17.819289 V 19.44546 h 3.051777 v -3.532123 c 0,-2.528022 1.2,-6.474375 6.476142,-6.474375 l 4.751269,0.01828 v 5.294631 c 0,0 -2.88934,0 -3.449746,0 -0.563452,0 -1.360406,0.28123 -1.360406,1.483309 v 3.211298 h 4.89137 z" /></svg>