<?xml version="1.0" encoding="UTF-8" standalone="no"?>
<svg
   xmlns:dc="http://purl.org/dc/elements/1.1/"
   xmlns:cc="http://creativecommons.org/ns#"
   xmlns:rdf="http://www.w3.org/1999/02/22-rdf-syntax-ns#"
   xmlns:svg="http://www.w3.org/2000/svg"
   xmlns="http://www.w3.org/2000/svg"
   height="50"
   width="50"
   id="svg7"
   xml:space="preserve"
   viewBox="0 0 50 50"
   version="1.1"
   enable-background="new 0 0 32 32"><metadata
     id="metadata13"><rdf:RDF><cc:Work
         rdf:about=""><dc:format>image/svg+xml</dc:format><dc:type
           rdf:resource="http://purl.org/dc/dcmitype/StillImage" /><dc:title></dc:title></cc:Work></rdf:RDF></metadata><defs
     id="defs11" /><g
     transform="scale(1.5625)"
     id="OUTLINE_copy_2"><g
       id="g4"><path
         id="path2"
         d="M 16,0 C 7.163,0 0,7.163 0,16 0,24.837 7.164,32 16,32 24.837,32 32,24.837 32,16 32,7.163 24.837,0 16,0 Z m 2.067,18.96 c 0.333,0.289 0.592,1.308 0.592,1.776 v 4.144 h -2.365 -2.368 c 0,0 0.007,-1.405 0,-2.368 C 10.686,23.209 9.782,20.736 9.782,20.736 9.19,19.552 8.598,18.96 8.598,18.96 c -1.184,-0.703 0,-0.592 0,-0.592 1.184,0 1.776,1.184 1.776,1.184 1.039,1.764 2.888,1.48 3.552,1.184 0,-0.592 0.259,-1.487 0.592,-1.776 -2.586,-0.291 -4.738,-1.776 -4.738,-4.736 0,-2.96 0.594,-3.552 1.186,-4.144 -0.12,-0.292 -0.615,-1.37 0.018,-2.96 0,0 1.163,0 2.347,1.776 0.587,-0.587 2.368,-0.592 2.961,-0.592 0.591,0 2.373,0.005 2.959,0.592 1.184,-1.776 2.35,-1.776 2.35,-1.776 0.633,1.59 0.138,2.668 0.018,2.96 0.592,0.592 1.184,1.184 1.184,4.144 10e-4,2.96 -2.149,4.445 -4.736,4.736 z" /></g></g></svg>