<?xml version="1.0" encoding="UTF-8" standalone="no"?>
<svg
   xmlns:dc="http://purl.org/dc/elements/1.1/"
   xmlns:cc="http://creativecommons.org/ns#"
   xmlns:rdf="http://www.w3.org/1999/02/22-rdf-syntax-ns#"
   xmlns:svg="http://www.w3.org/2000/svg"
   xmlns="http://www.w3.org/2000/svg"
   xml:space="preserve"
   width="50"
   viewBox="0 0 49.999999 49.999999"
   version="1.1"
   id="Layer_1"
   height="50"><metadata
     id="metadata15"><rdf:RDF><cc:Work
         rdf:about=""><dc:format>image/svg+xml</dc:format><dc:type
           rdf:resource="http://purl.org/dc/dcmitype/StillImage" /><dc:title></dc:title></cc:Work></rdf:RDF></metadata><defs
     id="defs13" /><g
     transform="matrix(1.0162463,0,0,1.0162602,-3.7601113,-5.284553)"
     id="g8"><circle
       id="circle2"
       r="4.4000001"
       cy="30"
       cx="28.1" /><path
       id="path4"
       d="m 33.6,19.2 h -11 c -1.6,0 -3,0.5 -3.9,1.4 -0.9,0.9 -1.4,2.3 -1.4,3.9 v 11 c 0,1.6 0.5,3 1.5,4 1,0.9 2.3,1.4 3.9,1.4 h 10.9 c 1.6,0 3,-0.5 3.9,-1.4 1,-0.9 1.5,-2.3 1.5,-3.9 v -11 c 0,-1.6 -0.5,-2.9 -1.4,-3.9 -1,-1 -2.3,-1.5 -4,-1.5 z m -5.5,17.6 c -3.8,0 -6.8,-3.1 -6.8,-6.8 0,-3.8 3.1,-6.8 6.8,-6.8 3.7,0 6.9,3 6.9,6.8 0,3.8 -3.1,6.8 -6.9,6.8 z m 7.1,-12.3 c -0.9,0 -1.6,-0.7 -1.6,-1.6 0,-0.9 0.7,-1.6 1.6,-1.6 0.9,0 1.6,0.7 1.6,1.6 0,0.9 -0.7,1.6 -1.6,1.6 z" /><path
       id="path6"
       d="m 28.3,5.2 c -13.6,0 -24.6,11 -24.6,24.6 0,13.6 11,24.6 24.6,24.6 13.6,0 24.6,-11 24.6,-24.6 C 53,16.2 41.9,5.2 28.3,5.2 Z m 13.1,30.4 c 0,2.3 -0.8,4.3 -2.2,5.7 -1.4,1.4 -3.4,2.1 -5.6,2.1 H 22.7 c -2.2,0 -4.2,-0.7 -5.6,-2.1 -1.5,-1.4 -2.2,-3.4 -2.2,-5.7 v -11 c 0,-4.6 3.1,-7.8 7.8,-7.8 h 11 c 2.3,0 4.2,0.8 5.6,2.2 1.4,1.4 2.1,3.3 2.1,5.6 z" /></g></svg>