<?xml version="1.0" encoding="UTF-8" standalone="no"?>
<svg
   xmlns:dc="http://purl.org/dc/elements/1.1/"
   xmlns:cc="http://creativecommons.org/ns#"
   xmlns:rdf="http://www.w3.org/1999/02/22-rdf-syntax-ns#"
   xmlns:svg="http://www.w3.org/2000/svg"
   xmlns="http://www.w3.org/2000/svg"
   viewBox="0 0 50 49.999996"
   height="49.999996"
   width="50"
   id="svg2"
   version="1.1">
  <metadata
     id="metadata8">
    <rdf:RDF>
      <cc:Work
         rdf:about="">
        <dc:format>image/svg+xml</dc:format>
        <dc:type
           rdf:resource="http://purl.org/dc/dcmitype/StillImage" />
        <dc:title></dc:title>
      </cc:Work>
    </rdf:RDF>
  </metadata>
  <defs
     id="defs6" />
  <path
     id="path821"
     d="M 23.728019,49.966088 C 16.138754,49.560178 9.2083855,45.791588 4.7394213,39.640488 1.3714909,35.004858 -0.31043103,29.215198 0.04729683,23.488858 0.53500663,15.681838 4.527755,8.6875878 11.019867,4.2677878 c 7.308292,-4.97545005 16.976845,-5.65497 24.931456,-1.75223 2.497356,1.22528 4.526046,2.65809 6.500181,4.59091 1.191499,1.16657 2.066536,2.18299 2.944507,3.4202602 3.839283,5.41048 5.351658,12.03341 4.256238,18.63877 -1.128174,6.80287 -5.105727,12.89244 -10.928847,16.73189 -4.379828,2.88783 -9.763339,4.34854 -14.995383,4.0687 z m -4.950565,-15.09709 v -1.76061 H 17.7312 16.684947 l 0.004,-7.56549 c 0.0022,-4.16102 0.01273,-7.54253 0.02336,-7.51446 0.01063,0.0281 1.169958,4.18462 2.57628,9.23679 1.406322,5.05217 2.568652,9.22595 2.582954,9.27506 0.0242,0.0831 0.166797,0.0893 2.060078,0.0893 h 2.034073 l 0.05263,-0.16585 c 0.02895,-0.0912 1.190643,-4.25352 2.581548,-9.24955 1.390906,-4.99604 2.550268,-9.12963 2.576359,-9.18576 0.02943,-0.0633 0.04387,2.78538 0.03804,7.5017 l -0.0094,7.60377 -1.059013,0.0138 -1.059013,0.0138 v 1.73405 1.73405 h 5.333341 5.333342 v -1.72744 -1.72745 l -0.548646,-0.0303 c -0.301754,-0.0167 -0.656462,-0.0678 -0.788238,-0.11354 -0.329702,-0.11449 -0.670582,-0.42985 -0.842072,-0.77904 l -0.143219,-0.29162 v -7.16999 -7.17 l 0.125438,-0.25301 c 0.159848,-0.32241 0.426782,-0.58908 0.746121,-0.74538 0.212108,-0.10381 0.344774,-0.1259 0.851595,-0.1418 l 0.600345,-0.0188 -0.01342,-1.74245 -0.01342,-1.74245 -5.602462,-0.013 -5.602462,-0.013 -0.04335,0.11505 c -0.02384,0.0633 -0.855724,3.15068 -1.848628,6.8609 -0.992905,3.71022 -1.820071,6.71855 -1.838145,6.68519 -0.01807,-0.0334 -0.840269,-3.08048 -1.827097,-6.77137 -0.986828,-3.69089 -1.806248,-6.75089 -1.820935,-6.80001 -0.02522,-0.0843 -0.33807,-0.0893 -5.637306,-0.0893 H 9.8970581 v 1.76061 1.7606 h 0.5084529 c 0.816354,0 1.288671,0.24147 1.611198,0.82372 l 0.151485,0.27347 0.01346,7.14196 c 0.01505,7.98487 0.04084,7.41082 -0.353001,7.8582 -0.113542,0.12898 -0.31326,0.29729 -0.443817,0.37404 -0.217198,0.12767 -0.290525,0.14106 -0.862578,0.15753 l -0.6251999,0.018 v 1.75535 1.75536 h 4.4401979 4.440198 z"
     style="fill:#000000;stroke-width:0.05103438" />
</svg>
