<?xml version="1.0" encoding="UTF-8" standalone="no"?>
<svg
   xmlns:dc="http://purl.org/dc/elements/1.1/"
   xmlns:cc="http://creativecommons.org/ns#"
   xmlns:rdf="http://www.w3.org/1999/02/22-rdf-syntax-ns#"
   xmlns:svg="http://www.w3.org/2000/svg"
   xmlns="http://www.w3.org/2000/svg"
   height="50"
   width="50"
   id="svg11"
   xml:space="preserve"
   viewBox="0 0 50 50"
   version="1.1"><metadata
     id="metadata17"><rdf:RDF><cc:Work
         rdf:about=""><dc:format>image/svg+xml</dc:format><dc:type
           rdf:resource="http://purl.org/dc/dcmitype/StillImage" /><dc:title></dc:title></cc:Work></rdf:RDF></metadata><defs
     id="defs15" /><style
     id="style2"
     type="text/css">
	.st0{fill:#222A30;}
	.st1{fill:none;stroke:#222A30;stroke-width:1.8761;stroke-linejoin:round;stroke-miterlimit:10;}
	.st2{fill:#171715;}
	.st3{fill-rule:evenodd;clip-rule:evenodd;fill:#222A30;}
</style><g
     transform="translate(-2.1000001,20.2)"
     id="Layer_1" /><g
     style="fill:#000000"
     transform="matrix(1.7985612,0,0,1.8115942,-3.7769785,-3.9855072)"
     id="telegram"><path
       class="st0"
       d="M 21,12.1 13.2,19 c -0.1,0.1 -0.1,0.2 -0.1,0.3 L 12.8,22 c 0,0.1 -0.1,0.1 -0.2,0 l -1.2,-4 c -0.1,-0.2 0,-0.4 0.2,-0.5 l 9.1,-5.7 C 21,11.7 21.2,12 21,12.1 Z"
       id="path5"
       style="fill:#000000" /><path
       class="st0"
       d="m 16,2.2 c -3.8,0 -7.3,1.5 -9.8,4 -2.5,2.5 -4.1,6 -4.1,9.8 0,3.8 1.5,7.3 4.1,9.8 2.5,2.5 6,4 9.8,4 3.8,0 7.3,-1.5 9.8,-4 2.5,-2.5 4.1,-6 4.1,-9.8 C 29.8,8.4 23.6,2.2 16,2.2 Z m 8.2,7.9 -2.8,13.6 c -0.1,0.6 -0.9,0.9 -1.4,0.5 L 15.7,21 13.5,23.2 c -0.4,0.4 -1,0.2 -1.2,-0.3 l -1.6,-5 -4.2,-1.3 C 5.9,16.4 5.9,15.7 6.5,15.5 L 23.2,9 c 0.5,-0.1 1.2,0.4 1,1.1 z"
       id="path7"
       style="fill:#000000" /></g></svg>